<?xml version="1.0" encoding="UTF-8"?>
<svg width="1331px" height="965px" viewBox="0 0 1331 965" version="1.1" xmlns="http://www.w3.org/2000/svg" xmlns:xlink="http://www.w3.org/1999/xlink">
    <!-- Generator: Sketch 59.1 (86144) - https://sketch.com -->
    <title>Group 20</title>
    <desc>Created with Sketch.</desc>
    <defs>
        <path d="M0.547999986,39.6213323 C-7.44399981,4.88399988 74.4773315,0.417333323 108.233331,0.039999999 C117.59333,-0.0639999984 126.903997,0.822666646 136.07733,2.68399993 C164.622663,8.47599979 227.109328,23.6773327 218.345328,44.3479989 C207.038661,71.0159982 173.073329,52.421332 173.073329,52.421332 C173.073329,52.421332 177.335996,72.5559982 119.54133,85.8546645 C61.7466651,99.1519975 61.9773318,54.8399986 61.9773318,54.8399986 C61.9773318,54.8399986 10.5893331,83.2613313 0.547999986,39.6213323 L0.547999986,39.6213323 Z" id="path-1"></path>
        <linearGradient x1="0.000106843126%" y1="49.9987207%" x2="99.999939%" y2="49.9987207%" id="linearGradient-3">
            <stop stop-color="#D8F1E3" offset="0%"></stop>
            <stop stop-color="#B5E6EA" offset="100%"></stop>
        </linearGradient>
        <path d="M71.1906355,69.8582179 C25.152388,77.0861154 -22.1451973,137.757244 12.6940268,242.2475 C41.2709298,327.960936 189.320448,375.700904 344.513579,381.720878 C516.016729,388.374276 599.776194,306.503115 665.006455,263.278128 C730.231806,220.053141 749.286348,144.987596 719.361732,84.4662308 C690.794649,26.6872436 605.257873,-19.034609 457.564308,12.7715769 C333.906174,39.3998974 210.493525,108.840744 173.79107,106.869276 C137.088615,104.900263 117.228883,62.6278654 71.1906355,69.8582179" id="path-4"></path>
        <linearGradient x1="-0.000205814865%" y1="50.0000348%" x2="99.9997291%" y2="50.0000348%" id="linearGradient-6">
            <stop stop-color="#D4EBDE" offset="0%"></stop>
            <stop stop-color="#B0DCDF" offset="100%"></stop>
        </linearGradient>
        <path d="M84.1985129,86.9804531 C38.1604677,94.2049062 -22.0444516,225.959797 12.7921645,330.364797 C41.3713968,416.005844 189.420265,463.706859 344.612713,469.721922 C516.11511,476.369891 599.874206,394.565531 665.101726,351.375812 C730.329245,308.186094 779.997997,224.792109 750.075968,164.317672 C721.506555,106.588281 595.681342,-12.4079062 470.175258,3.35096875 C344.671629,19.1098438 130.236558,79.7584531 84.1985129,86.9804531" id="path-7"></path>
        <path d="M61.5135,98.7873333 L28.65225,129.648444 L1.36521429,78.21 C1.36521429,78.21 -4.39382143,15.0186667 50.6681786,1.59377778" id="path-9"></path>
        <path d="M84.1985129,86.9804531 C38.1604677,94.2049062 -22.0444516,225.959797 12.7921645,330.364797 C41.3713968,416.005844 189.420265,463.706859 344.612713,469.721922 C516.11511,476.369891 599.874206,394.565531 665.101726,351.375812 C730.329245,308.186094 779.997997,224.792109 750.075968,164.317672 C721.506555,106.588281 595.681342,-12.4079062 470.175258,3.35096875 C344.671629,19.1098438 130.236558,79.7584531 84.1985129,86.9804531" id="path-11"></path>
        <path d="M68.4603214,56.3284314 L45.1013571,123.42402 C45.1013571,123.42402 -30.4511786,61.7916667 14.8276071,0.215686275" id="path-13"></path>
        <path d="M84.1985129,86.9804531 C38.1604677,94.2049062 -22.0444516,225.959797 12.7921645,330.364797 C41.3713968,416.005844 189.420265,463.706859 344.612713,469.721922 C516.11511,476.369891 599.874206,394.565531 665.101726,351.375812 C730.329245,308.186094 779.997997,224.792109 750.075968,164.317672 C721.506555,106.588281 595.681342,-12.4079062 470.175258,3.35096875 C344.671629,19.1098438 130.236558,79.7584531 84.1985129,86.9804531" id="path-15"></path>
        <path d="M45.025587,79.9052727 L0.358652174,50.1340909 C0.358652174,50.1340909 34.6688913,-25.4290909 111.469587,9.63654545" id="path-17"></path>
        <path d="M84.1985129,86.9804531 C38.1604677,94.2049062 -22.0444516,225.959797 12.7921645,330.364797 C41.3713968,416.005844 189.420265,463.706859 344.612713,469.721922 C516.11511,476.369891 599.874206,394.565531 665.101726,351.375812 C730.329245,308.186094 779.997997,224.792109 750.075968,164.317672 C721.506555,106.588281 595.681342,-12.4079062 470.175258,3.35096875 C344.671629,19.1098438 130.236558,79.7584531 84.1985129,86.9804531" id="path-19"></path>
        <path d="M401.884793,93.25822 C345.625156,133.219126 271.250427,179.758515 150.658082,181.072887 L126.174239,180.72745 C126.098213,180.724525 126.02217,180.721582 125.94611,180.718622 C98.2950339,179.642547 70.8710698,177.235791 44.311433,173.51969 C40.9778476,151.911458 23.7557654,134.507183 1.00254878,134.020865 L1.00254878,63.3335405 C24.0881341,62.7752432 45.9162439,42.3715676 44.8475122,18.4262703 C44.8401585,18.2737838 44.8156463,18.1286757 44.8082927,17.9786486 C44.8082927,17.9786486 318.712463,-18.837 356.11072,14.0017027 C353.005024,36.1073243 375.661646,61.7619459 400.921463,63.3876486 C401.242573,63.4073243 401.561232,63.3409189 401.884793,63.3335405 L401.884793,93.25822" id="path-21"></path>
        <linearGradient x1="28.6916541%" y1="81.0574867%" x2="81.7557329%" y2="81.0574867%" id="linearGradient-23">
            <stop stop-color="#D4EBDE" offset="0%"></stop>
            <stop stop-color="#B0DCDF" offset="100%"></stop>
        </linearGradient>
        <path d="M84.1985129,86.9804531 C38.1604677,94.2049062 -22.0444516,225.959797 12.7921645,330.364797 C41.3713968,416.005844 189.420265,463.706859 344.612713,469.721922 C516.11511,476.369891 599.874206,394.565531 665.101726,351.375812 C730.329245,308.186094 779.997997,224.792109 750.075968,164.317672 C721.506555,106.588281 595.681342,-12.4079062 470.175258,3.35096875 C344.671629,19.1098438 130.236558,79.7584531 84.1985129,86.9804531" id="path-24"></path>
        <polygon id="path-26" points="1.61586207 2.01666667 70.361 2.01666667 70.361 20.0786667 1.61586207 20.0786667"></polygon>
        <polygon id="path-28" points="0.67588 2.41376471 60.84628 2.41376471 60.84628 40.3521176 0.67588 40.3521176"></polygon>
        <path d="M84.1985129,86.9804531 C38.1604677,94.2049062 -22.0444516,225.959797 12.7921645,330.364797 C41.3713968,416.005844 189.420265,463.706859 344.612713,469.721922 C516.11511,476.369891 599.874206,394.565531 665.101726,351.375812 C730.329245,308.186094 779.997997,224.792109 750.075968,164.317672 C721.506555,106.588281 595.681342,-12.4079062 470.175258,3.35096875 C344.671629,19.1098438 130.236558,79.7584531 84.1985129,86.9804531 L84.1985129,86.9804531 Z" id="path-30"></path>
        <polygon id="path-32" points="2.11466667 1.91967857 51.935619 1.91967857 51.935619 67.5805714 2.11466667 67.5805714"></polygon>
        <path d="M84.1985129,86.9804531 C38.1604677,94.2049062 -22.0444516,225.959797 12.7921645,330.364797 C41.3713968,416.005844 189.420265,463.706859 344.612713,469.721922 C516.11511,476.369891 599.874206,394.565531 665.101726,351.375812 C730.329245,308.186094 779.997997,224.792109 750.075968,164.317672 C721.506555,106.588281 595.681342,-12.4079062 470.175258,3.35096875 C344.671629,19.1098438 130.236558,79.7584531 84.1985129,86.9804531 L84.1985129,86.9804531 Z" id="path-34"></path>
        <polyline id="path-36" points="195.65945 88.9242162 153.40185 0.13772973 1.65865 0.13772973 45.01385 88.9242162 195.65945 88.9242162"></polyline>
        <linearGradient x1="0%" y1="50%" x2="100.000631%" y2="50%" id="linearGradient-38">
            <stop stop-color="#D4EBDE" offset="0%"></stop>
            <stop stop-color="#B0DCDF" offset="100%"></stop>
        </linearGradient>
        <linearGradient x1="0%" y1="50%" x2="99.9993537%" y2="50%" id="linearGradient-39">
            <stop stop-color="#D4EBDE" offset="0%"></stop>
            <stop stop-color="#B0DCDF" offset="100%"></stop>
        </linearGradient>
        <path d="M223.189397,169.926171 L65.4885776,169.926171 L70.7782759,98.7427429 L60.039181,114.770686 L1.77142241,93.4009143 L12.8593966,72.3997143 C34.9272414,30.0262857 67.0069397,1.64628571 117.009698,0.221142857 C119.071034,0.162171429 129.837155,0.132685714 131.974655,0.132685714 C158.418233,0.132685714 179.665474,3.54074286 196.161078,8.0152 C220.494181,14.6126286 241.724224,28.8345714 257.082284,47.8282857 L282.90181,79.6384571 L236.835,110.352743 L222.302457,90.3810857 L223.189397,169.926171" id="path-40"></path>
        <linearGradient x1="-0.000436967446%" y1="50%" x2="99.999563%" y2="50%" id="linearGradient-42">
            <stop stop-color="#D4EBDE" offset="0%"></stop>
            <stop stop-color="#B0DCDF" offset="100%"></stop>
        </linearGradient>
        <path d="M337.319992,0.122666664 L8.03866647,0.122666664 C8.03866647,0.122666664 -9.81866642,22.7119994 8.03866647,37.9133324 C17.8933329,46.3026655 29.5306659,45.4333322 37.9826657,42.9693323 C43.4906656,41.3626656 48.9826654,45.0786655 50.1919987,50.6879987 C52.1946654,59.9746652 58.3639985,72.1279982 76.0893314,79.3093314 C93.5279977,86.3733312 104.557331,75.5853314 110.938664,64.5013317 C113.038664,60.8546651 118.62933,61.4026651 119.895997,65.414665 C125.423997,82.9133313 144.687996,106.109331 207.982661,106.109331 C288.485326,106.109331 279.541326,63.3133318 272.34666,45.5253322 C271.097327,42.4373323 273.741326,39.235999 276.999993,39.9333323 C289.417326,42.5879989 312.466659,46.0279988 322.802659,37.9133324 C337.319992,26.5173327 337.319992,0.122666664 337.319992,0.122666664 L337.319992,0.122666664 Z" id="path-43"></path>
        <linearGradient x1="100%" y1="50%" x2="0.000175729861%" y2="50%" id="linearGradient-45">
            <stop stop-color="#D8F1E3" offset="0%"></stop>
            <stop stop-color="#B5E6EA" offset="100%"></stop>
        </linearGradient>
    </defs>
    <g id="Page-1" stroke="none" stroke-width="1" fill="none" fill-rule="evenodd">
        <g id="Group-20">
            <polyline id="Fill-3" fill="#00666B" points="914 687.361409 802.863879 569 628 838.8686 738.61828 906 914 687.361409"></polyline>
            <polyline id="Fill-20" fill="#63C0C4" points="1109 903.343343 920.907803 965 859 777.655917 1047.09591 716 1109 903.343343"></polyline>
            <polygon id="Fill-25" fill="#285D6B" points="440.234084 958 797 905.833704 710.180467 645 383 788.457684"></polygon>
            <path d="M433,811.001111 C433,863.467055 390.466768,906 338.000185,906 C285.533232,906 243,863.467055 243,811.001111 C243,758.531463 285.533232,716 338.000185,716 C390.466768,716 433,758.531463 433,811.001111" id="Fill-28" fill="#AFD8C7"></path>
            <path d="M755,822.000932 C755,859.002309 725.226586,889 688.49815,889 C651.773414,889 622,859.002309 622,822.000932 C622,784.995828 651.773414,755 688.49815,755 C725.226586,755 755,784.995828 755,822.000932" id="Fill-29" fill="#FFD147"></path>
            <polygon id="Fill-159" fill="#A0D2BB" points="22.373 607.404 33.836 607.404 33.836 595.941 22.373 595.941"></polygon>
            <polygon id="Fill-160" fill="#A0D2BB" points="22.373 591.092 33.836 591.092 33.836 579.629 22.373 579.629"></polygon>
            <polygon id="Fill-161" fill="#A0D2BB" points="22.373 574.78 33.836 574.78 33.836 563.317 22.373 563.317"></polygon>
            <polyline id="Fill-162" fill="#A0D2BB" points="15 558.468 41.21 558.468 28.265 538.205 15 558.468"></polyline>
            <polygon id="Fill-163" fill="#5BBDB7" points="52.943 541.199 64.406 541.199 64.406 529.736 52.943 529.736"></polygon>
            <polygon id="Fill-164" fill="#5BBDB7" points="52.943 524.887 64.406 524.887 64.406 513.424 52.943 513.424"></polygon>
            <polygon id="Fill-165" fill="#5BBDB7" points="52.943 508.575 64.406 508.575 64.406 497.112 52.943 497.112"></polygon>
            <polyline id="Fill-166" fill="#5BBDB7" points="45.569 492.263 71.78 492.263 58.834 472 45.569 492.263"></polyline>
            <polygon id="Fill-159" fill="#A0D2BB" points="1281.373 259.404 1292.836 259.404 1292.836 247.941 1281.373 247.941"></polygon>
            <polygon id="Fill-160" fill="#A0D2BB" points="1281.373 243.092 1292.836 243.092 1292.836 231.629 1281.373 231.629"></polygon>
            <polygon id="Fill-161" fill="#A0D2BB" points="1281.373 226.78 1292.836 226.78 1292.836 215.317 1281.373 215.317"></polygon>
            <polyline id="Fill-162" fill="#A0D2BB" points="1274 210.468 1300.21 210.468 1287.265 190.205 1274 210.468"></polyline>
            <polygon id="Fill-163" fill="#5BBDB7" points="1311.943 193.199 1323.406 193.199 1323.406 181.736 1311.943 181.736"></polygon>
            <polygon id="Fill-164" fill="#5BBDB7" points="1311.943 176.887 1323.406 176.887 1323.406 165.424 1311.943 165.424"></polygon>
            <polygon id="Fill-165" fill="#5BBDB7" points="1311.943 160.575 1323.406 160.575 1323.406 149.112 1311.943 149.112"></polygon>
            <polyline id="Fill-166" fill="#5BBDB7" points="1304.569 144.263 1330.78 144.263 1317.834 124 1304.569 144.263"></polyline>
            <g id="g506" transform="translate(687.599997, 44.199999) scale(1, -1) translate(-687.599997, -44.199999) translate(578.000000, 0.000000)">
                <g id="g508-Clipped">
                    <mask id="mask-2" fill="white">
                        <use xlink:href="#path-1"></use>
                    </mask>
                    <g id="path510"></g>
                    <g id="g508" mask="url(#mask-2)" fill="url(#linearGradient-3)" fill-rule="nonzero">
                        <path d="M0.547999986,39.6213323 C-7.44399981,4.88399988 74.4773315,0.417333323 108.233331,0.039999999 C117.59333,-0.0639999984 126.903997,0.822666646 136.07733,2.68399993 C164.622663,8.47599979 227.109328,23.6773327 218.345328,44.3479989 C207.038661,71.0159982 173.073329,52.421332 173.073329,52.421332 C173.073329,52.421332 177.335996,72.5559982 119.54133,85.8546645 C61.7466651,99.1519975 61.9773318,54.8399986 61.9773318,54.8399986 C61.9773318,54.8399986 10.5893331,83.2613313 0.547999986,39.6213323" id="path520"></path>
                    </g>
                </g>
            </g>
            <g id="shutterstock_1082147411" transform="translate(153.000000, 88.000000)">
                <path d="M281.946901,172.792738 C264.81725,171.378385 252.075781,156.346895 253.487673,139.214784 C254.902025,122.085133 269.933516,109.343664 287.063167,110.755556 C304.195278,112.169909 316.936747,127.201399 315.524854,144.33105 C314.110502,161.463161 299.079012,174.20463 281.946901,172.792738 Z M368.768454,133.921417 C367.75504,132.35948 360.936632,130.273618 353.021179,129.479121 C351.810985,122.724666 349.624273,116.280139 346.59141,110.312803 C352.074178,106.02547 357.406901,100.928882 357.12649,97.4950811 C356.560749,90.5266288 342.626304,77.5859202 339.728727,76.9685247 C337.87408,76.5725061 331.380359,80.0505829 325.112933,85.2406408 C319.735935,81.3690052 313.768598,78.2352924 307.346209,76.0092249 C308.19728,69.0875078 308.371921,61.6787615 305.739996,59.442855 C300.412193,54.9169276 281.408217,55.6204142 278.921417,57.2315459 C277.3644,58.2400406 275.288376,65.0166329 274.4865,72.9025693 C267.584461,73.901225 260.98251,75.9206742 254.847911,78.8157918 C250.661428,73.5494818 245.805895,68.6029384 242.495081,68.8710504 C235.526629,69.439251 222.58592,83.3736958 221.968525,86.2688135 C221.599563,87.9955531 224.580772,93.7316741 229.175572,99.5686445 C224.858723,105.213755 221.373267,111.550053 218.933202,118.420116 C212.663316,117.795341 206.457385,117.888811 204.442855,120.260004 C199.916928,125.587807 200.620414,144.591783 202.231546,147.076123 C203.139191,148.478177 208.70805,150.298387 215.553515,151.233089 C216.579228,158.764823 218.812674,165.954652 222.081673,172.568901 C217.51639,176.398721 213.632455,180.563066 213.87351,183.504919 C214.439251,190.473371 228.373696,203.41162 231.271273,204.031475 C232.865187,204.37092 237.890442,201.844764 243.252682,197.830463 C249.254455,202.258 256.013829,205.738537 263.329105,208.070373 C262.815019,213.986056 263.016718,219.650844 265.260004,221.557145 C270.587807,226.083072 289.591783,225.379586 292.076123,223.768454 C293.480637,222.858349 295.305766,217.262434 296.240468,210.394831 C303.612318,209.140362 310.610288,206.697837 317.044976,203.288633 C321.015001,208.119568 325.42778,212.377384 328.504919,212.12649 C335.473371,211.560749 348.41408,197.623844 349.031475,194.728727 C349.400437,192.994608 346.387251,187.211752 341.755555,181.345264 C345.710822,175.633741 348.839615,169.290063 350.957454,162.461816 C357.591381,163.207119 364.424548,163.248934 366.557145,160.737537 C371.083072,155.409733 370.379586,136.408217 368.768454,133.921417 L368.768454,133.921417 Z" id="Fill-4" fill="#21837F"></path>
                <path d="M284.968164,97.9623968 C262.825832,97.9623968 243.962751,115.009081 242.10894,137.462252 C240.159115,161.11194 257.813403,181.937749 281.462418,183.890091 C305.084352,185.835048 325.936649,168.187643 327.888936,144.537955 C329.838761,120.888266 312.186935,100.062458 288.53792,98.110115 C287.341436,98.0116362 286.149876,97.9623968 284.968164,97.9623968 Z M285.032173,186 C283.796299,186 282.55304,185.950761 281.299932,185.847358 C256.572605,183.808846 238.113276,162.030255 240.154191,137.302223 C242.195107,112.57173 263.995235,94.1217228 288.697943,96.1528484 C313.427733,98.193822 331.8846,119.969951 329.846146,144.697983 C327.908631,168.175334 308.183885,186 285.032173,186 L285.032173,186 Z" id="Fill-5" fill="#FFFFFE"></path>
                <path d="M348.441331,133.189544 C348.153427,133.132927 347.865523,133.071387 347.58008,133 C348.195259,137.502275 348.350285,142.132554 347.961491,146.844066 C345.082452,181.766854 314.338247,207.837712 279.428047,204.955172 C256.570442,203.069583 237.509725,189.232902 227.878476,170.098847 C227.876015,170.101309 227.873555,170.101309 227.871094,170.101309 C227.58319,170.140695 227.292825,170.167772 227,170.187465 C236.709991,189.715377 256.093063,203.859758 279.359147,205.77981 C314.72458,208.696812 345.867421,182.288715 348.783371,146.912991 C349.169703,142.245788 349.029443,137.654895 348.441331,133.189544" id="Fill-6" fill="#FFFFFE"></path>
                <path d="M250.3079,89 C261.714989,81.6567227 275.565575,77.8426026 290.150195,79.0311662 C290.435927,79.055522 290.716732,79.0944913 291,79.1212827 C290.921178,78.8436265 290.859597,78.5610991 290.793091,78.2785716 C290.600961,78.2615226 290.411295,78.2322956 290.219165,78.2176821 C275.503995,77.0169406 261.527786,80.8432386 250,88.2230496 C250.108381,88.4787856 250.209372,88.7393928 250.3079,89" id="Fill-7" fill="#FFFFFE"></path>
                <path d="M119.267334,586.387994 C94.027183,584.313707 75.2538214,562.253291 77.336472,537.116954 C79.4166637,511.978169 101.566034,493.277753 126.806185,495.35204 C152.043878,497.426326 170.819698,519.486743 168.737048,544.62308 C166.654397,569.761865 144.505027,588.46228 119.267334,586.387994 Z M247.186832,529.346339 C245.694307,527.054093 235.647423,523.992867 223.982613,522.827153 C222.20486,512.916128 218.978842,503.460614 214.51356,494.70306 C222.588442,488.40918 230.446944,480.929993 230.033856,475.89244 C229.197845,465.667946 208.668861,446.678551 204.400288,445.772428 C201.668499,445.189571 192.101093,450.295695 182.86809,457.912025 C174.94074,452.23039 166.152791,447.628756 156.691115,444.364264 C157.942672,434.203444 158.198393,423.334868 154.320778,420.053234 C146.469653,413.411599 118.473124,414.44262 114.80943,416.805886 C112.515317,418.287519 109.454042,428.23283 108.273792,439.804263 C98.1039654,441.271202 88.3767331,444.232019 79.3404392,448.481001 C73.1711708,440.754467 66.0159014,433.495689 61.1399909,433.889975 C50.8718105,434.722628 31.8083039,455.169167 30.8960685,459.420597 C30.3551203,461.950394 34.7441774,470.369989 41.5134065,478.934074 C35.1548062,487.221424 30.0182571,496.517754 26.4209516,506.600207 C17.1830315,505.684289 8.04100685,505.821432 5.07316829,509.298984 C-1.59524777,517.118579 -0.560069615,545.00512 1.81518478,548.651653 C3.15280216,550.706347 11.3580029,553.378185 21.4442281,554.752063 C22.9564242,565.804312 26.243914,576.352072 31.0632707,586.057382 C24.338301,591.677792 18.6140854,597.787998 18.9681606,602.105551 C19.8041715,612.332494 40.3331559,631.321889 44.601729,632.228012 C46.949936,632.727604 54.3560087,629.022297 62.2538525,623.132498 C71.0958968,629.624746 81.0567203,634.735768 91.8338839,638.154545 C91.0765564,646.83863 91.3765368,655.15047 94.6812385,657.947206 C102.532364,664.588841 130.528893,663.55782 134.192587,661.192105 C136.258026,659.857411 138.950473,651.645979 140.324973,641.565975 C151.185737,639.724342 161.500636,636.143932 170.979524,631.138216 C176.826682,638.230463 183.327896,644.477813 187.862026,644.108017 C198.130206,643.275363 217.193713,622.828825 218.105948,618.579843 C218.649355,616.032904 214.211121,607.547186 207.385338,598.93657 C213.212826,590.558608 217.82318,581.247584 220.943467,571.228804 C230.717418,572.323499 240.786431,572.382274 243.92639,568.699007 C250.594806,560.879412 249.559628,532.99532 247.186832,529.346339 L247.186832,529.346339 Z" id="Fill-8" fill="#5BBDB7"></path>
                <path d="M123.953629,476.879504 C91.4782209,476.879504 63.811897,501.880446 61.092547,534.811624 C58.2335547,569.499359 84.1261764,600.041912 118.811363,602.903362 C153.457352,605.755013 184.039015,579.877016 186.905357,545.189281 C189.764349,510.503995 163.874177,479.956543 129.188991,477.095093 C127.434887,476.95055 125.685684,476.879504 123.953629,476.879504 Z M124.049174,606 C122.236274,606 120.408675,605.926504 118.573726,605.774612 C82.3059268,602.785768 55.2324703,570.841889 58.2262051,534.576436 C61.2174901,498.306083 93.1931263,471.247248 129.424178,474.223843 C165.691977,477.217586 192.765434,509.156566 189.774149,545.424468 C186.934755,579.857417 158.001851,606 124.049174,606 L124.049174,606 Z" id="Fill-9" fill="#FFFFFE"></path>
                <path d="M217.179455,529.276626 C216.755679,529.193393 216.334352,529.102817 215.915475,529 C216.819367,535.597398 217.047178,542.38574 216.476427,549.291587 C212.250915,600.482007 167.142037,638.690608 115.921476,634.470232 C82.3843787,631.706424 54.4176094,611.422181 40.2884751,583.380181 C40.283576,583.380181 40.2811264,583.380181 40.2762273,583.382629 C39.8524512,583.438934 39.4262256,583.48055 39,583.507478 C53.2442641,612.129657 81.6838009,632.859439 115.823493,635.677103 C167.710338,639.953783 213.404663,601.245787 217.684067,549.391956 C218.247468,542.549757 218.044154,535.822615 217.179455,529.276626" id="Fill-10" fill="#FFFFFE"></path>
                <path d="M72.4500061,463 C89.141809,452.315782 109.41165,446.770565 130.757592,448.498789 C131.175804,448.534843 131.584233,448.592531 132,448.630989 C131.885053,448.227176 131.792117,447.816152 131.696735,447.405129 C131.415481,447.381092 131.139119,447.337826 130.857865,447.316194 C109.323605,445.571145 88.8703379,451.135591 72,461.870285 C72.1565239,462.242851 72.3081564,462.620224 72.4500061,463" id="Fill-11" fill="#FFFFFE"></path>
                <path d="M801,471.0572 C801,471.0572 807.170386,313.975182 915.62546,275 C1045.43409,424.817826 897.648938,552 897.648938,552 L801,471.0572" id="Fill-12" fill="#1B2441"></path>
                <path d="M915.622133,275 C916.07376,275.523052 916.51066,276.043648 916.954923,276.564244 L863.601602,454.315869 L969,406.58065 C968.973001,407.869861 968.926365,409.154162 968.869912,410.433551 L862.283539,458.709012 L846.888957,510 L844.007381,507.586104 L874.698366,405.335639 L832,353.595268 C832.571897,352.485318 833.146248,351.375368 833.735327,350.267874 L875.893704,401.352588 L913.587358,275.778438 C914.267253,275.520596 914.929966,275.245564 915.622133,275" id="Fill-13" fill="#005C5A"></path>
                <path d="M851.691693,452.756463 C851.691693,452.756463 954.458705,334.257001 1062.22157,358.192769 C1100.37354,485.313228 965.029223,549.401849 965.029223,549.401849 L828,556 L851.691693,452.756463" id="Fill-14" fill="#5BBDB7"></path>
                <g id="Group-18" transform="translate(755.000000, 356.000000)">
                    <path d="M187.055687,25.5077308 L195.491984,94.5957692 L304.830219,2.20600769 C305.681453,2.38023077 306.535141,2.53482308 307.388828,2.72376923 C307.538469,3.22435385 307.661125,3.71512308 307.808312,4.21570769 L249.247312,53.6975154 L313.190469,63.1963538 C313.116875,63.8073615 313.026109,64.4085538 312.942703,65.0146538 L312.70475,66.6170154 L245.734437,56.6666692 L148.146672,139.128169 L259.835,159.382215 C258.753172,160.376023 257.668891,161.355108 256.589516,162.3072 L144.724562,142.0188 L75.4286875,200.574931 L73.1129375,200.685354 L73.8734063,197.362846 L192.334812,97.2631 L183.793031,27.3137615 C184.872406,26.7052077 185.961594,26.1040154 187.055687,25.5077308" id="Fill-15" fill="#FFFFFE"></path>
                    <path d="M109.78225,171.337354 C109.78225,171.337354 237.03075,140.325646 287.373781,212.478538 C216.299391,377.487423 1.45225,298.706692 1.45225,298.706692 L109.78225,171.337354" id="Fill-17" fill="#005C5A"></path>
                </g>
                <path d="M1042,567.763954 C1041.72484,568.398456 1041.44231,569.020709 1041.16469,569.645411 L865.846111,598.207794 L937.596495,662.843688 C936.304227,663.243007 935.011958,663.627628 933.714776,664 L861.475491,598.920689 L793,610.074693 L796.466523,606.010451 L929.786378,584.29285 L973.018411,525 C974.236976,525.279279 975.448171,525.570807 976.659365,525.874584 L934.640984,583.50156 L1040.85514,566.198523 C1041.23594,566.717884 1041.62657,567.227445 1042,567.759055 L1042,567.763954" id="Fill-19" fill="#21837F"></path>
                <path d="M378.143885,675 L883.337704,675 C892.822284,664.473493 900.370184,652.722574 905.740852,639.759512 C955.259984,520.18428 801.216554,342.882567 561.667079,243.744463 C322.117605,144.603906 87.7792489,161.171499 38.2601171,280.746731 C-10.9742808,399.622649 140.99992,575.53555 378.143885,675" id="Fill-20" fill="#FACB57"></path>
                <path d="M203.947157,259.579335 C203.947157,259.579335 208.55499,144.695921 131.714341,110 C28.3552959,211.717387 128.766213,313 128.766213,313 L203.947157,259.579335" id="Fill-21" fill="#FACB57"></path>
                <path d="M131.625555,110 C131.26667,110.356215 130.920075,110.709974 130.563649,111.063733 L159.151544,243.507054 L85.1302802,202.670036 C85.0737435,203.613392 85.0319555,204.549379 85,205.482909 L159.857024,246.779322 L168.106463,285 L170.345807,283.408086 L153.901007,207.219766 L188,172.035516 C187.650947,171.192883 187.294521,170.352706 186.928261,169.514986 L153.259439,204.252123 L133.063553,110.685407 C132.58422,110.459395 132.11472,110.221099 131.628013,110 L131.625555,110" id="Fill-22" fill="#FFFFFE"></path>
                <path d="M167.71612,243.704471 C167.71612,243.704471 99.7058104,151.779967 19.8123029,162.939677 C-15.3435914,252.997707 79.5500591,307.311395 79.5500591,307.311395 L179,320 L167.71612,243.704471" id="Fill-23" fill="#21837F"></path>
                <path d="M106.102921,185.7892 L95.9534103,235.630782 L21.6236039,162 C20.9920241,162.076177 20.3629019,162.140067 19.7288647,162.22853 C19.5912442,162.584839 19.4708263,162.936234 19.3381208,163.290087 L59.1473034,202.724968 L12,205.946499 C12.0196601,206.393729 12.0516077,206.836045 12.0761828,207.283275 L12.1572806,208.46524 L61.5384593,205.093813 L127.881363,270.812063 L45.3164447,279.10302 C46.0487823,279.889359 46.7811199,280.665868 47.5134574,281.420262 L130.206166,273.117018 L177.319064,319.783757 L179,320 L178.636289,317.53532 L98.1012729,237.756353 L108.373659,187.29553 C107.621661,186.789325 106.864749,186.288034 106.102921,185.7892" id="Fill-24" fill="#005C5A"></path>
                <path d="M154.55654,295.965145 C154.55654,295.965145 63.785937,265.988474 23,315.664381 C65.1645198,440.055763 226,395.078463 226,395.078463 L154.55654,295.965145" id="Fill-25" fill="#13374D"></path>
                <path d="M23,316.295132 C23.1615289,316.775724 23.3304001,317.246457 23.4968239,317.72212 L148.894679,348.785582 L93.1696411,391.93284 C94.080077,392.300062 94.9978551,392.65496 95.9156332,393 L152.022467,349.561922 L201,361.695009 L198.72391,358.520641 L103.363096,334.89772 L75.4577478,289 C74.559549,289.133087 73.6637976,289.273567 72.7680462,289.428835 L99.8902241,334.03512 L23.9177781,315.21565 C23.6118521,315.575478 23.3010312,315.922982 23,316.292668 L23,316.295132" id="Fill-26" fill="#005C5A"></path>
                <g id="Group-29" transform="translate(129.000000, 86.000000)">
                    <mask id="mask-5" fill="white">
                        <use xlink:href="#path-4"></use>
                    </mask>
                    <g id="Clip-28"></g>
                    <path d="M71.1906355,69.8582179 C25.152388,77.0861154 -22.1451973,137.757244 12.6940268,242.2475 C41.2709298,327.960936 189.320448,375.700904 344.513579,381.720878 C516.016729,388.374276 599.776194,306.503115 665.006455,263.278128 C730.231806,220.053141 749.286348,144.987596 719.361732,84.4662308 C690.794649,26.6872436 605.257873,-19.034609 457.564308,12.7715769 C333.906174,39.3998974 210.493525,108.840744 173.79107,106.869276 C137.088615,104.900263 117.228883,62.6278654 71.1906355,69.8582179" id="Fill-27" fill="url(#linearGradient-6)" mask="url(#mask-5)"></path>
                </g>
                <g id="Group-37" transform="translate(129.000000, 0.000000)">
                    <mask id="mask-8" fill="white">
                        <use xlink:href="#path-7"></use>
                    </mask>
                    <g id="Clip-31"></g>
                    <path d="M538.468871,224.205812 L479.727035,224.205812 C461.885268,224.205812 447.369806,209.702937 447.369806,191.873625 L447.369806,154.551781 L449.530065,154.551781 L449.530065,191.873625 C449.530065,208.513172 463.075865,222.049516 479.727035,222.049516 L538.468871,222.049516 L538.468871,224.205812" id="Fill-30" fill="#FFFFFE" mask="url(#mask-8)"></path>
                    <path d="M596.85721,264.657844 C574.417529,258.488234 561.23259,235.306203 567.408965,212.882188 C573.580429,190.460625 596.78111,177.282438 619.218335,183.4545 C641.660471,189.624109 654.84541,212.806141 648.669035,235.230156 C642.495116,257.654172 619.29689,270.829906 596.85721,264.657844 Z M722.127629,234.727266 C721.170242,232.394344 712.622494,227.914937 702.285168,224.870609 C702.371087,215.590437 701.077387,206.472172 698.539084,197.778297 C706.907629,193.448531 715.281084,188.009953 715.769597,183.373547 C716.761352,173.965812 701.465252,153.268797 697.763355,151.720875 C695.39689,150.729812 685.88439,153.727531 676.246694,159.060625 C670.058045,152.56475 662.9071,146.902937 654.919055,142.332766 C657.783852,133.339609 659.875374,123.534469 656.932023,119.901391 C650.976584,112.546922 625.517452,108.7225 621.805735,110.240984 C619.481003,111.19525 615.015652,119.685516 611.971652,129.969016 C602.537706,129.566703 593.246142,130.597016 584.359626,132.912766 C580.1103,124.859156 574.888858,117.068031 570.416142,116.594578 C560.999381,115.603516 540.290361,130.888937 538.741358,134.58825 C537.818339,136.788703 540.346823,145.163672 544.996287,154.073422 C537.837977,160.500609 531.612506,168.051328 526.639003,176.573484 C518.452116,174.174328 510.171945,172.744156 506.899645,175.391078 C499.540039,181.342359 495.712945,206.786172 497.234945,210.495297 C498.089229,212.582906 505.043787,216.399969 513.918029,219.358437 C513.395148,229.632125 514.563652,239.748812 517.25661,249.362609 C510.223497,253.312141 504.0103,257.874953 503.592977,261.846562 C502.598768,271.25675 517.897323,291.951312 521.596765,293.499234 C523.631826,294.350469 530.952155,292.253047 539.0924,288.259359 C545.965948,295.648172 554.08901,301.972328 563.238194,306.900656 C561.073026,314.642719 559.921706,322.222875 562.428097,325.318719 C568.383535,332.673187 593.845123,336.497609 597.556839,334.979125 C599.650816,334.120531 603.482819,327.138937 606.448265,318.241453 C616.569565,318.418078 626.496932,316.926578 635.911239,314.002453 C639.983816,321.420703 644.787935,328.186422 648.946432,328.625531 C658.358284,329.616594 679.069758,314.331172 680.618761,310.634312 C681.54669,308.424047 678.986294,299.975484 674.295097,291.014219 C680.986987,284.412859 686.741129,276.761562 691.272761,268.212422 C699.911339,270.866703 708.994242,272.632953 712.462929,269.829031 C719.820081,263.87775 723.647174,238.433937 722.127629,234.727266 L722.127629,234.727266 Z" id="Fill-32" fill="#13374D" mask="url(#mask-8)"></path>
                    <path d="M605.957297,164.648844 C596.803203,165.051156 587.811129,167.619578 579.614423,172.275609 C565.990068,180.015219 556.197716,192.592391 552.039219,207.693828 C547.883177,222.792812 549.856868,238.605656 557.601884,252.2205 C565.344445,265.835344 577.932858,275.620859 593.04239,279.776453 C608.151923,283.932047 623.978268,281.957281 637.600168,274.220125 C651.226977,266.480516 661.019329,253.900891 665.177826,238.801906 C669.333868,223.702922 667.360177,207.890078 659.615161,194.275234 C651.870145,180.660391 639.286642,170.872422 624.174655,166.716828 C618.15539,165.063422 612.023203,164.381453 605.957297,164.648844 Z M611.338303,283.593516 C605.093194,283.870719 598.779348,283.166672 592.580881,281.46175 C577.017203,277.1835 564.0532,267.106063 556.079884,253.084 C548.104113,239.064391 546.069052,222.778094 550.352745,207.227734 C554.636439,191.679828 564.718461,178.724875 578.750319,170.757125 C592.782177,162.786922 609.077397,160.753281 624.636165,165.033984 C640.199842,169.312234 653.158935,179.389672 661.137161,193.411734 C669.110477,207.431344 671.143084,223.717641 666.861845,239.268 C662.580606,254.815906 652.496129,267.768406 638.466726,275.738609 C630.024535,280.532016 620.764884,283.178938 611.338303,283.593516 L611.338303,283.593516 Z" id="Fill-33" fill="#FFFFFE" mask="url(#mask-8)"></path>
                    <path d="M695.271694,229.097344 C694.901013,228.950156 694.535242,228.795609 694.171926,228.628797 C693.862616,234.766516 692.910139,240.958203 691.213845,247.120453 C678.632797,292.800094 631.212677,319.737859 585.501126,307.168047 C555.566823,298.937812 533.681935,275.777859 525.669342,247.944703 C525.664432,247.944703 525.661977,247.944703 525.659523,247.944703 C525.264294,247.925078 524.871519,247.888281 524.47629,247.841672 C532.501158,276.219422 554.739542,299.865094 585.20409,308.242516 C631.509713,320.976687 679.545997,293.690578 692.291519,247.414828 C693.970629,241.311453 694.937835,235.178641 695.271694,229.097344" id="Fill-34" fill="#FFFFFE" mask="url(#mask-8)"></path>
                    <path d="M575.657223,144.898734 C592.676619,137.890156 612.045297,136.234297 631.124303,141.479078 C631.497439,141.582109 631.860755,141.707219 632.231435,141.815156 C632.194613,141.420203 632.182339,141.02525 632.170065,140.630297 C631.917216,140.559156 631.671732,140.473297 631.421339,140.404609 C612.172948,135.110766 592.632432,136.754359 575.446106,143.777656 C575.524661,144.150531 575.595852,144.523406 575.657223,144.898734" id="Fill-35" fill="#FFFFFE" mask="url(#mask-8)"></path>
                    <path d="M353.40349,275.763141 C353.40349,275.763141 374.655029,212.528938 342.599745,178.224438 C287.748829,191.697 293.485787,255.112734 293.485787,255.112734 L320.668216,306.733844 L353.40349,275.763141" id="Fill-36" fill="#FACB57" mask="url(#mask-8)"></path>
                </g>
                <g id="Group-40" transform="translate(421.000000, 177.000000)">
                    <mask id="mask-10" fill="white">
                        <use xlink:href="#path-9"></use>
                    </mask>
                    <g id="Clip-39"></g>
                    <polyline id="Fill-38" fill="#FFFFFE" mask="url(#mask-10)" points="2.77232143 51.9517778 35.0248929 89.0315556 44.1945 35.6913333 26.0154643 13.3882222 27.1613571 12.4691111 44.5247143 33.7675556 50.2048929 0.733333333 51.543 1.65977778 41.1363214 62.1793333 69.1725 50.0597778 68.6968929 51.8613333 40.8406071 63.9051111 29.2658571 131.23 27.8119286 130.983111 34.7020714 90.9015556 2.61460714 54.0075556 2.77232143 51.9517778"></polyline>
                </g>
                <g id="Group-44" transform="translate(129.000000, 0.000000)">
                    <mask id="mask-12" fill="white">
                        <use xlink:href="#path-11"></use>
                    </mask>
                    <g id="Clip-42"></g>
                    <path d="M323.5011,286.971469 C323.5011,286.971469 307.380174,233.677328 270.07399,230.809625 C224.968784,292.439484 300.231684,354.125766 300.231684,354.125766 L323.5011,286.971469" id="Fill-41" fill="#005C5A" mask="url(#mask-12)"></path>
                    <path d="M323.5011,286.971469 C323.5011,286.971469 307.380174,233.677328 270.07399,230.809625 C224.968784,292.439484 300.231684,354.125766 300.231684,354.125766 L323.5011,286.971469" id="Fill-43" fill="#EE9E35" mask="url(#mask-12)"></path>
                </g>
                <g id="Group-47" transform="translate(384.000000, 231.000000)">
                    <mask id="mask-14" fill="white">
                        <use xlink:href="#path-13"></use>
                    </mask>
                    <g id="Clip-46"></g>
                    <polyline id="Fill-45" fill="#1B2441" mask="url(#mask-14)" points="1.55496429 58.627451 41.745 71.1495098 14.1400714 0.482843137 15.5151429 -0.0490196078 32.2698214 42.8406863 44.7169286 14.3235294 45.6385714 15.8995098 33.0288214 44.7843137 55.7544643 102.965686 54.3793929 103.497549 42.4276071 72.8995098 2.39282143 60.4264706 1.55496429 58.627451"></polyline>
                </g>
                <g id="Group-50" transform="translate(129.000000, 0.000000)">
                    <mask id="mask-16" fill="white">
                        <use xlink:href="#path-15"></use>
                    </mask>
                    <g id="Clip-49"></g>
                    <path d="M351.849577,300.640281 C351.849577,300.640281 415.297339,279.329984 418.248055,230.412219 C341.499977,195.366875 307.213245,270.886328 307.213245,270.886328 L351.849577,300.640281" id="Fill-48" fill="#13374D" mask="url(#mask-16)"></path>
                </g>
                <g id="Group-53" transform="translate(436.000000, 221.000000)">
                    <mask id="mask-18" fill="white">
                        <use xlink:href="#path-17"></use>
                    </mask>
                    <g id="Clip-52"></g>
                    <polyline id="Fill-51" fill="#21837F" mask="url(#mask-18)" points="49.9435435 3.294 51.4837826 2.89145455 44.5146304 52.2818182 111.069174 9.02045455 111.867543 10.2526364 64.6581087 40.9393636 91.4538478 52.4217273 89.6826957 53.2611818 63.1743696 41.904 63.1768261 41.904 24.855087 66.8102727 23.1453478 66.1696364 42.8810435 53.3421818 49.9435435 3.294"></polyline>
                </g>
                <g id="Group-56" transform="translate(129.000000, 0.000000)">
                    <mask id="mask-20" fill="white">
                        <use xlink:href="#path-19"></use>
                    </mask>
                    <g id="Clip-55"></g>
                    <path d="M639.053432,489.332203 C639.053432,489.332203 303.248681,474.6895 201.147029,489.332203 C193.244903,369.116812 201.147029,289.853891 201.147029,289.853891 C201.147029,289.853891 616.807684,250.213844 639.053432,278.08625 C648.028323,314.480812 647.856484,313.585422 639.053432,489.332203" id="Fill-54" fill="#21837F" mask="url(#mask-20)"></path>
                </g>
                <g id="Group-59" transform="translate(348.000000, 289.000000)">
                    <mask id="mask-22" fill="white">
                        <use xlink:href="#path-21"></use>
                    </mask>
                    <g id="Clip-58"></g>
                    <path d="M-134.084159,-203.011162 C-180.054329,-195.768054 -240.170488,-63.6729459 -205.385232,41.0016486 C-176.848134,126.863838 -29.0175366,174.688027 125.94611,180.718622 C297.195659,187.383757 380.831268,105.368162 445.962622,62.0669189 C511.093976,18.7656757 560.6895,-64.8436486 530.811585,-125.474243 C502.284293,-183.352703 376.644585,-302.656162 251.323537,-286.856595 C126.004939,-271.057027 -88.1139878,-210.251811 -134.084159,-203.011162" id="Fill-57" fill="url(#linearGradient-23)" mask="url(#mask-22)"></path>
                </g>
                <g id="Group-74" transform="translate(129.000000, 0.000000)">
                    <mask id="mask-25" fill="white">
                        <use xlink:href="#path-24"></use>
                    </mask>
                    <g id="Clip-61"></g>
                    <path d="M467.843161,387.208609 C467.843161,416.633844 443.974765,440.488031 414.528974,440.488031 C385.085639,440.488031 361.217242,416.633844 361.217242,387.208609 C361.217242,357.785828 385.085639,333.931641 414.528974,333.931641 C443.974765,333.931641 467.843161,357.785828 467.843161,387.208609" id="Fill-60" fill="#FFFFFE" mask="url(#mask-25)"></path>
                    <path d="M410.220732,430.832531 L410.220732,420.455813 C402.473261,420.347875 394.458213,417.727938 389.77929,414.997609 L393.640752,407.029859 C398.452235,409.649797 404.743987,411.725141 412.226335,411.725141 C421.711832,411.725141 428.126326,407.900719 428.126326,401.674688 C428.126326,395.669438 422.914703,391.957859 413.029068,388.680484 C399.399803,384.313922 390.984616,379.289922 390.984616,369.788969 C390.984616,360.724672 398.864648,353.843656 411.158481,352.207422 L411.158481,341.178172 L419.441106,341.178172 L419.441106,351.768313 C427.45861,351.986641 432.935355,353.735719 436.80909,355.592734 L432.817523,364.105078 C430.011642,362.795109 425.185429,361.046031 416.637681,361.046031 C406.346997,361.046031 402.473261,364.109984 402.473261,368.476547 C402.473261,374.155531 407.417306,376.99625 419.040968,380.926156 C432.802794,385.5135 439.749987,391.192484 439.749987,400.911766 C439.749987,409.536953 432.402655,418.272531 418.640829,420.129547 L418.640829,430.832531 L410.220732,430.832531" id="Fill-62" fill="#005C5A" mask="url(#mask-25)"></path>
                    <polygon id="Fill-63" fill="#005C5A" mask="url(#mask-25)" points="409.899148 430.832531 419.536845 430.832531 419.536845 341.178172 409.899148 341.178172"></polygon>
                    <path d="M517.926781,387.993609 C517.926781,395.029172 512.219281,400.732687 505.178803,400.732687 C498.138326,400.732687 492.430826,395.029172 492.430826,387.993609 C492.430826,380.955594 498.138326,375.254531 505.178803,375.254531 C512.219281,375.254531 517.926781,380.955594 517.926781,387.993609" id="Fill-64" fill="#21837F" mask="url(#mask-25)"></path>
                    <path d="M556.536484,387.993609 C556.536484,395.029172 550.826529,400.732687 543.788506,400.732687 C536.743119,400.732687 531.035619,395.029172 531.035619,387.993609 C531.035619,380.955594 536.743119,375.254531 543.788506,375.254531 C550.826529,375.254531 556.536484,380.955594 556.536484,387.993609" id="Fill-65" fill="#21837F" mask="url(#mask-25)"></path>
                    <path d="M299.158919,387.993609 C299.158919,395.029172 293.451419,400.732687 286.408487,400.732687 C279.36801,400.732687 273.66051,395.029172 273.66051,387.993609 C273.66051,380.955594 279.36801,375.254531 286.408487,375.254531 C293.451419,375.254531 299.158919,380.955594 299.158919,387.993609" id="Fill-66" fill="#13374D" mask="url(#mask-25)"></path>
                    <path d="M336.960981,387.993609 C336.960981,395.029172 331.251026,400.732687 324.210548,400.732687 C317.170071,400.732687 311.462571,395.029172 311.462571,387.993609 C311.462571,380.955594 317.170071,375.254531 324.210548,375.254531 C331.251026,375.254531 336.960981,380.955594 336.960981,387.993609" id="Fill-67" fill="#21837F" mask="url(#mask-25)"></path>
                    <path d="M278.916319,354.299937 L278.916319,381.411875 C285.870877,380.796141 291.325529,374.967516 291.325529,367.855906 C291.325529,360.74675 285.870877,354.915672 278.916319,354.299937" id="Fill-68" fill="#769250" mask="url(#mask-25)"></path>
                    <path d="M283.663977,134.264438 C301.166977,134.264438 315.355945,147.793422 315.355945,164.477125 L315.355945,446.451578 C315.355945,463.135281 301.166977,476.664266 283.663977,476.664266 L171.924629,476.664266 C154.421629,476.664266 140.232661,463.135281 140.232661,446.451578 L140.232661,164.477125 C140.232661,147.793422 154.421629,134.264438 171.924629,134.264438 L283.663977,134.264438" id="Fill-69" fill="#21837F" mask="url(#mask-25)"></path>
                    <path d="M287.262771,139.653953 C303.803474,139.653953 310.539552,152.437187 310.539552,168.205875 L310.539552,442.725281 C310.539552,458.493969 303.803474,471.27475 287.262771,471.27475 L170.547465,471.27475 C154.006761,471.27475 145.0466,460.505531 145.0466,444.739297 L145.0466,166.191859 C145.0466,150.420719 154.006761,139.653953 170.547465,139.653953 L287.262771,139.653953" id="Fill-70" fill="#FFFFFE" mask="url(#mask-25)"></path>
                    <polygon id="Fill-71" fill="#5BBDB7" mask="url(#mask-25)" points="147.992406 429.333672 307.593745 429.333672 307.593745 181.597484 147.992406 181.597484"></polygon>
                    <path d="M229.277026,462.477844 C235.269287,462.477844 240.122503,457.625562 240.122503,451.637484 C240.122503,445.651859 235.269287,440.799578 229.277026,440.799578 C223.287219,440.799578 218.429094,445.651859 218.429094,451.637484 C218.429094,457.625562 223.287219,462.477844 229.277026,462.477844" id="Fill-72" fill="#5BBDB7" mask="url(#mask-25)"></path>
                    <path d="M257.912719,162.477828 C258.268671,162.477828 258.555887,161.970031 258.555887,161.344484 C258.555887,160.721391 258.268671,160.211141 257.912719,160.211141 L198.515442,160.211141 C198.15949,160.211141 197.872274,160.721391 197.872274,161.344484 C197.872274,161.970031 198.15949,162.477828 198.515442,162.477828 L257.912719,162.477828" id="Fill-73" fill="#21837F" mask="url(#mask-25)"></path>
                </g>
                <g id="Group-77" transform="translate(286.000000, 270.000000)">
                    <mask id="mask-27" fill="white">
                        <use xlink:href="#path-26"></use>
                    </mask>
                    <g id="Clip-76"></g>
                    <path d="M-72.7162414,-182.216222 C-118.631207,-175.017333 -178.675172,-43.7286667 -143.93169,60.3068889 C-115.428862,145.644889 32.2242069,193.177111 187.001759,199.170889 C358.045655,205.795333 441.580828,124.280444 506.633966,81.2435556 C571.687103,38.2066667 621.223069,-44.8922222 591.381034,-105.152667 C562.888,-162.677778 437.399172,-281.252889 312.228621,-265.549778 C187.060517,-249.846667 -26.8012759,-189.412667 -72.7162414,-182.216222" id="Fill-75" mask="url(#mask-27)"></path>
                </g>
                <g id="Group-80" transform="translate(360.000000, 378.000000)">
                    <mask id="mask-29" fill="white">
                        <use xlink:href="#path-28"></use>
                    </mask>
                    <g id="Clip-79"></g>
                    <path d="M-145.67044,-292.870941 C-191.4302,-285.595059 -251.2712,-152.902235 -216.64516,-47.754 C-188.23868,38.4967059 -41.08472,86.5372941 113.16964,92.5951765 C283.63536,99.2904706 366.88816,16.9037647 431.7214,-26.5934118 C496.55464,-70.0905882 545.92316,-154.078235 516.182,-214.983176 C487.78528,-273.123529 362.72064,-392.966824 237.9732,-377.095765 C113.2282,-361.224706 -99.91068,-300.144353 -145.67044,-292.870941" id="Fill-78" mask="url(#mask-29)"></path>
                </g>
                <g id="Group-83" transform="translate(129.000000, 0.000000)">
                    <mask id="mask-31" fill="white">
                        <use xlink:href="#path-30"></use>
                    </mask>
                    <g id="Clip-82"></g>
                    <polygon id="Fill-81" fill="#F8F7F6" mask="url(#mask-31)" points="219.199913 205.024828 296.429139 205.024828 296.429139 191.966844 219.199913 191.966844"></polygon>
                </g>
                <g id="Group-86" transform="translate(286.000000, 191.000000)">
                    <mask id="mask-33" fill="white">
                        <use xlink:href="#path-32"></use>
                    </mask>
                    <g id="Clip-85"></g>
                    <path d="M-73.5453333,-104.838107 C-119.98381,-97.5807857 -180.712381,34.7735357 -145.572762,139.653536 C-116.744952,225.684214 32.591619,273.60225 189.133905,279.644679 C362.128,286.322893 446.615619,204.146357 512.410476,160.760143 C578.205333,117.373929 628.306095,33.6005357 598.12381,-27.1490357 C569.305905,-85.1410714 442.386286,-204.678643 315.788571,-188.848071 C189.193333,-173.0175 -27.1068571,-112.092964 -73.5453333,-104.838107" id="Fill-84" mask="url(#mask-33)"></path>
                </g>
                <g id="Group-136" transform="translate(129.000000, 0.000000)">
                    <mask id="mask-35" fill="white">
                        <use xlink:href="#path-34"></use>
                    </mask>
                    <g id="Clip-88"></g>
                    <polygon id="Fill-87" fill="#FFFFFE" mask="url(#mask-35)" points="225.042429 215.102266 289.810894 215.102266 289.810894 212.904266 225.042429 212.904266"></polygon>
                    <polygon id="Fill-89" fill="#FFFFFE" mask="url(#mask-35)" points="225.042429 222.226141 289.810894 222.226141 289.810894 220.028141 225.042429 220.028141"></polygon>
                    <polygon id="Fill-90" fill="#FFFFFE" mask="url(#mask-35)" points="225.042429 229.352469 289.810894 229.352469 289.810894 227.154469 225.042429 227.154469"></polygon>
                    <polygon id="Fill-91" fill="#FFFFFE" mask="url(#mask-35)" points="225.042429 236.476344 289.810894 236.476344 289.810894 234.278344 225.042429 234.278344"></polygon>
                    <polygon id="Fill-92" fill="#FFFFFE" mask="url(#mask-35)" points="225.042429 243.602672 289.810894 243.602672 289.810894 241.404672 225.042429 241.404672"></polygon>
                    <polygon id="Fill-93" fill="#FFFFFE" mask="url(#mask-35)" points="225.042429 250.726547 289.810894 250.726547 289.810894 248.531 225.042429 248.531"></polygon>
                    <polygon id="Fill-94" fill="#FFFFFE" mask="url(#mask-35)" points="225.042429 257.850422 289.810894 257.850422 289.810894 255.654875 225.042429 255.654875"></polygon>
                    <polygon id="Fill-95" fill="#FFFFFE" mask="url(#mask-35)" points="158.020423 388.508766 222.788887 388.508766 222.788887 386.313219 158.020423 386.313219"></polygon>
                    <polygon id="Fill-96" fill="#FFFFFE" mask="url(#mask-35)" points="158.020423 395.632641 222.788887 395.632641 222.788887 393.437094 158.020423 393.437094"></polygon>
                    <polygon id="Fill-97" fill="#FFFFFE" mask="url(#mask-35)" points="158.020423 402.758969 222.788887 402.758969 222.788887 400.560969 158.020423 400.560969"></polygon>
                    <polygon id="Fill-98" fill="#FFFFFE" mask="url(#mask-35)" points="158.020423 409.882844 222.788887 409.882844 222.788887 407.687297 158.020423 407.687297"></polygon>
                    <polygon id="Fill-99" fill="#FFFFFE" mask="url(#mask-35)" points="158.020423 417.009172 222.788887 417.009172 222.788887 414.811172 158.020423 414.811172"></polygon>
                    <polyline id="Fill-100" fill="#EA8A36" mask="url(#mask-35)" points="582.852355 226.739891 388.591148 323.711922 353.597423 272.463687 148.139697 366.884469 148.139697 394.001312 347.214842 299.582984 381.926261 351.182016 592.649616 246.337906 582.852355 226.739891"></polyline>
                    <polyline id="Fill-101" fill="#EA8A36" mask="url(#mask-35)" points="552.245426 220.957875 586.399597 271.082578 626.53621 208.567141 552.245426 220.957875"></polyline>
                    <polyline id="Fill-102" fill="#FACB57" mask="url(#mask-35)" points="579.987558 223.445344 387.066694 319.767297 351.933042 268.617187 148.139697 362.272594 148.139697 389.347734 344.350045 296.288437 379.793006 347.885016 589.784819 243.043359 579.987558 223.445344"></polyline>
                    <polyline id="Fill-103" fill="#FACB57" mask="url(#mask-35)" points="549.380629 217.663328 583.5348 267.788031 623.671413 205.272594 549.380629 217.663328"></polyline>
                    <polyline id="Fill-104" fill="#EA8A36" mask="url(#mask-35)" points="623.671413 205.272594 626.53621 208.567141 623.062613 213.978734 619.419632 211.893578 623.671413 205.272594"></polyline>
                    <polygon id="Fill-105" fill="#EC944F" mask="url(#mask-35)" points="-22.0444516 414.906844 26.0630226 414.906844 26.0630226 388.349312 -22.0444516 388.349312"></polygon>
                    <polygon id="Fill-106" fill="#FACB57" mask="url(#mask-35)" points="64.014829 414.906844 116.008313 414.906844 116.008313 388.349312 64.014829 388.349312"></polygon>
                    <polygon id="Fill-107" fill="#F2AE53" mask="url(#mask-35)" points="26.0605677 414.906844 75.9404355 414.906844 75.9404355 388.349312 26.0605677 388.349312"></polygon>
                    <path d="M-36.999329,413.876531 L114.977281,413.876531 L114.977281,389.377172 L-36.999329,389.377172 L-36.999329,413.876531 Z M-39.0613935,415.937156 L117.039345,415.937156 L117.039345,387.316547 L-39.0613935,387.316547 L-39.0613935,415.937156 Z" id="Fill-108" fill="#EB8F4E" mask="url(#mask-35)"></path>
                    <polygon id="Fill-109" fill="#EC944F" mask="url(#mask-35)" points="-20.6280097 388.349312 43.4604645 388.349312 43.4604645 361.786875 -20.6280097 361.786875"></polygon>
                    <polygon id="Fill-110" fill="#FACB57" mask="url(#mask-35)" points="81.4147258 388.349312 133.410665 388.349312 133.410665 361.786875 81.4147258 361.786875"></polygon>
                    <polygon id="Fill-111" fill="#F2AE53" mask="url(#mask-35)" points="43.4604645 388.349312 93.3403323 388.349312 93.3403323 361.786875 43.4604645 361.786875"></polygon>
                    <path d="M-19.5969774,387.316547 L132.379632,387.316547 L132.379632,362.817187 L-19.5969774,362.817187 L-19.5969774,387.316547 Z M-21.6614968,389.377172 L134.441697,389.377172 L134.441697,360.756562 L-21.6614968,360.756562 L-21.6614968,389.377172 Z" id="Fill-112" fill="#EB8F4E" mask="url(#mask-35)"></path>
                    <polygon id="Fill-113" fill="#EC944F" mask="url(#mask-35)" points="-22.0444516 361.786875 3.3925871 361.786875 3.3925871 335.226891 -22.0444516 335.226891"></polygon>
                    <polygon id="Fill-114" fill="#FACB57" mask="url(#mask-35)" points="41.3443935 361.786875 93.3403323 361.786875 93.3403323 335.226891 41.3443935 335.226891"></polygon>
                    <polygon id="Fill-115" fill="#F2AE53" mask="url(#mask-35)" points="3.39013226 361.786875 53.2724548 361.786875 53.2724548 335.226891 3.39013226 335.226891"></polygon>
                    <path d="M-59.6673097,360.756563 L92.3093,360.756563 L92.3093,336.259656 L-59.6673097,336.259656 L-59.6673097,360.756563 Z M-61.7293742,362.817188 L94.3713645,362.817188 L94.3713645,334.196578 L-61.7293742,334.196578 L-61.7293742,362.817188 Z" id="Fill-116" fill="#EB8F4E" mask="url(#mask-35)"></path>
                    <polygon id="Fill-117" fill="#EC944F" mask="url(#mask-35)" points="-22.0444516 335.226891 15.4041129 335.226891 15.4041129 308.669359 -22.0444516 308.669359"></polygon>
                    <polygon id="Fill-118" fill="#FACB57" mask="url(#mask-35)" points="53.3559194 335.226891 105.351858 335.226891 105.351858 308.669359 53.3559194 308.669359"></polygon>
                    <polygon id="Fill-119" fill="#F2AE53" mask="url(#mask-35)" points="15.4016581 335.226891 65.2815258 335.226891 65.2815258 308.669359 15.4016581 308.669359"></polygon>
                    <path d="M-47.6582387,334.196578 L104.320826,334.196578 L104.320826,309.699672 L-47.6582387,309.699672 L-47.6582387,334.196578 Z M-49.7178484,336.259656 L106.380435,336.259656 L106.380435,307.636594 L-49.7178484,307.636594 L-49.7178484,336.259656 Z" id="Fill-120" fill="#EB8F4E" mask="url(#mask-35)"></path>
                    <polygon id="Fill-121" fill="#EC944F" mask="url(#mask-35)" points="-22.0444516 308.669359 38.0696387 308.669359 38.0696387 282.109375 -22.0444516 282.109375"></polygon>
                    <polygon id="Fill-122" fill="#FACB57" mask="url(#mask-35)" points="76.0239 308.669359 128.019839 308.669359 128.019839 282.109375 76.0239 282.109375"></polygon>
                    <polygon id="Fill-123" fill="#F2AE53" mask="url(#mask-35)" points="38.0696387 308.669359 87.9519613 308.669359 87.9519613 282.109375 38.0696387 282.109375"></polygon>
                    <path d="M-24.9878032,307.636594 L126.988806,307.636594 L126.988806,283.139687 L-24.9878032,283.139687 L-24.9878032,307.636594 Z M-27.0498677,309.699672 L129.050871,309.699672 L129.050871,281.079062 L-27.0498677,281.079062 L-27.0498677,309.699672 Z" id="Fill-124" fill="#EB8F4E" mask="url(#mask-35)"></path>
                    <path d="M27.000771,234.278344 C27.000771,259.238891 47.2482806,279.472266 72.2238097,279.472266 C97.1993387,279.472266 117.446848,259.238891 117.446848,234.278344 C117.446848,209.32025 97.1993387,189.086875 72.2238097,189.086875 C47.2482806,189.086875 27.000771,209.32025 27.000771,234.278344" id="Fill-125" fill="#F2AE53" mask="url(#mask-35)"></path>
                    <path d="M68.8803194,268.857594 L68.8803194,260.892297 C62.9297903,260.808891 56.7755097,258.797328 53.1865355,256.702359 L56.1495258,250.584266 C59.8416032,252.595828 64.6727258,254.187906 70.4170484,254.187906 C77.7005548,254.187906 82.6225065,251.251516 82.6225065,246.475281 C82.6225065,241.863406 78.6235742,239.012875 71.0332129,236.498422 C60.5706903,233.145 54.1095548,229.288688 54.1095548,221.995547 C54.1095548,215.036031 60.1607323,209.754453 69.5971323,208.498453 L69.5971323,200.030266 L75.9551645,200.030266 L75.9551645,208.162375 C82.1094452,208.329188 86.3145839,209.671047 89.2898484,211.096313 L86.2237548,217.631438 C84.0708613,216.625656 80.3665097,215.283797 73.802271,215.283797 C65.9050548,215.283797 62.9297903,217.636344 62.9297903,220.987313 C62.9297903,225.346516 66.724971,227.527344 75.6483097,230.544688 C86.2139355,234.067375 91.5458452,238.426578 91.5458452,245.886531 C91.5458452,252.509969 85.9046258,259.214359 75.339,260.642078 L75.339,268.857594 L68.8803194,268.857594" id="Fill-126" fill="#FACB57" mask="url(#mask-35)"></path>
                    <polygon id="Fill-127" fill="#FACB57" mask="url(#mask-35)" points="68.6299258 268.857594 76.0288097 268.857594 76.0288097 200.030266 68.6299258 200.030266"></polygon>
                    <path d="M72.2238097,190.129453 C47.8644452,190.129453 28.0440774,209.935984 28.0440774,234.278344 C28.0440774,258.623156 47.8644452,278.429687 72.2238097,278.429687 C96.585629,278.429687 116.403542,258.623156 116.403542,234.278344 C116.403542,209.935984 96.585629,190.129453 72.2238097,190.129453 Z M72.2238097,280.514844 C46.7131258,280.514844 25.9574645,259.773672 25.9574645,234.278344 C25.9574645,208.785469 46.7131258,188.044297 72.2238097,188.044297 C97.7344935,188.044297 118.49261,208.785469 118.49261,234.278344 C118.49261,259.773672 97.7344935,280.514844 72.2238097,280.514844 L72.2238097,280.514844 Z" id="Fill-128" fill="#EB8F4E" mask="url(#mask-35)"></path>
                    <path d="M468.945384,174.907812 L433.576068,174.716469 C433.576068,174.716469 436.271481,163.966875 435.262542,155.709656 C434.877132,152.591734 432.986906,149.831969 430.318497,148.163844 C395.653719,126.505203 404.152371,101.765437 404.152371,101.765437 C404.152371,101.765437 407.925458,70.3531719 452.480781,67.5517031 C499.986819,64.5637969 496.918271,106.730562 496.918271,106.730562 C496.918271,106.730562 498.958242,130.211875 474.230652,146.014906 C470.690774,148.274234 468.444597,152.088844 467.911897,156.251797 C466.57401,166.704563 468.945384,174.907812 468.945384,174.907812" id="Fill-129" fill="#EE9E35" mask="url(#mask-35)"></path>
                    <path d="M433.576068,174.630609 L433.507156,187.291188 C433.480329,192.035531 436.561152,195.933547 440.351423,195.953172 L461.887723,196.071016 C465.677994,196.093 468.803003,192.226875 468.827552,187.482531 L468.896287,174.821953 L433.576068,174.630609" id="Fill-130" fill="#5BBDB7" mask="url(#mask-35)"></path>
                    <polyline id="Fill-131" fill="#21837F" mask="url(#mask-35)" points="442.577961 195.965438 444.983703 201.764625 458.377303 201.835766 461.337839 196.068469 442.577961 195.965438"></polyline>
                    <path d="M436.7379,109.666953 C440.758926,107.66275 443.991948,109.573734 445.806074,111.376781 C446.822377,112.387469 447.369806,113.768578 447.362515,115.201203 L447.32071,122.911375 C442.818535,123.274437 438.471016,122.114109 435.75351,118.056641 C433.907471,115.296875 434.209416,111.227141 436.7379,109.666953 Z M457.66049,117.055766 C457.633487,115.846375 459.435339,106.195781 465.390777,111.580391 C466.011852,112.139703 466.372713,112.993391 466.25979,113.820094 C465.790916,117.215219 460.962248,119.494172 457.552477,120.607891 C457.537748,119.415672 457.532839,118.223453 457.66049,117.055766 Z M445.8699,124.493641 C446.32159,124.496094 446.824832,124.466656 447.313345,124.447031 L447.038403,174.598719 L449.456419,174.613437 L449.728906,124.267953 C451.449748,124.086422 453.254055,123.777328 455.060816,123.340672 C455.087819,124.287578 455.109913,125.209953 455.095184,126.080812 C455.016629,131.607703 454.940529,137.1395 454.864429,142.668844 C454.714684,153.325219 454.567394,163.984047 454.417648,174.640422 L456.835665,174.652687 C457.076239,157.314 457.319268,139.975312 457.559842,122.639078 C460.621026,121.660281 463.458819,120.30125 465.390777,118.476125 C473.639035,110.677641 459.582629,102.123594 455.839,113.074344 C454.99699,115.539734 454.947894,118.505562 455.011719,121.375719 C453.425894,121.832 451.334371,122.312812 449.458874,122.626812 C449.458874,122.626812 449.525155,117.997766 449.483423,115.027031 C449.458874,113.346641 448.958087,111.661344 447.833771,110.412703 C441.61321,103.526781 428.359535,108.418312 433.684081,118.4565 C435.979355,122.776453 441.274442,124.459297 445.8699,124.493641 L445.8699,124.493641 Z" id="Fill-132" fill="#FAD473" mask="url(#mask-35)"></path>
                    <path d="M497.7701,59.1742813 C497.045923,58.4407969 497.053287,57.2583906 497.784829,56.5298125 L515.741974,38.7814531 C516.478426,38.0553281 517.659203,38.0626875 518.38829,38.7961719 C519.114923,39.5296562 519.107558,40.7145156 518.373561,41.4406406 L500.418871,59.189 C499.682419,59.915125 498.499187,59.9077656 497.7701,59.1742813" id="Fill-133" fill="#EE9E35" mask="url(#mask-35)"></path>
                    <path d="M418.937865,58.7474375 C419.674316,58.0188594 419.681681,56.8364531 418.952594,56.1029688 L401.191835,38.1608125 C400.465203,37.424875 399.281971,37.4199688 398.547974,38.1460938 C397.811523,38.8722187 397.806613,40.0570781 398.533245,40.7905625 L416.294003,58.7327188 C417.020635,59.4686563 418.203868,59.4735625 418.937865,58.7474375" id="Fill-134" fill="#EE9E35" mask="url(#mask-35)"></path>
                    <path d="M452.740994,52.3791735 C451.705052,52.3766719 450.872861,51.53525 450.877749,50.5000312 L451.017697,25.2622813 C451.022606,24.2295156 451.862161,23.3979063 452.895648,23.4027909 C453.93159,23.4101719 454.763781,24.2491406 454.756416,25.2843594 L454.618945,50.5221094 C454.614035,51.554875 453.774481,52.3864844 452.740994,52.3791735" id="Fill-135" fill="#EE9E35" mask="url(#mask-35)"></path>
                </g>
                <path d="M849.202444,667 C857.538894,618.50582 856.92939,570.951659 831.760288,546.924885 C794.29787,511.165018 724.561197,516.359599 674.07799,526.484381 C639.176475,533.48556 614,563.877041 614,599.340705 L614,667 L849.202444,667" id="Fill-137" fill="#EE9E35"></path>
                <path d="M637.983737,668 L779.73049,668 L774.975384,600.082963 L784.627686,615.376078 L837,594.985259 L827.03412,574.947868 C807.197904,534.519658 770.575502,507.445618 725.633501,506.085903 C723.776535,506.029452 721.890171,506 719.97196,506 C696.201328,506 677.104959,509.252026 662.276181,513.520158 C640.406612,519.81559 621.324941,533.383289 607.517739,551.50628 L588,582.094963 L638.895071,581.194213 L637.983737,668" id="Fill-138" fill="#21837F"></path>
                <path d="M696.746424,489.421827 L694.013834,510.213979 C694.013834,510.213979 692.846892,521 711.948277,521 C719.725461,521 724.740882,519.21214 727.949973,517.093194 C731.647721,514.652974 733.478361,510.172287 732.892459,505.757817 L726.972659,461 L696.746424,489.421827" id="Fill-139" fill="#EC967C"></path>
                <path d="M847.830004,667 C847.977024,666.846484 848.197555,666.714899 848.315172,666.549199 C859.091775,651.368157 833.946368,596 833.946368,596 L787.404577,613.671414 L802.515834,637.970827 L694,630.828671 L694,649.582009 C694,649.582009 744.913201,660.983629 788.370011,667 L847.830004,667" id="Fill-140" fill="#F0AB85"></path>
                <path d="M603,668 L574.161729,624 C574.161729,624 539.024624,646.96137 539,664.327965 C538.997548,665.75763 539.467684,666.959342 540.265192,668 L603,668" id="Fill-141" fill="#F0AB85"></path>
                <g id="Group-144" transform="translate(534.000000, 579.000000)">
                    <mask id="mask-37" fill="white">
                        <use xlink:href="#path-36"></use>
                    </mask>
                    <g id="Clip-143"></g>
                    <polyline id="Fill-142" fill="url(#linearGradient-38)" mask="url(#mask-37)" points="195.65945 88.9242162 153.40185 0.13772973 1.65865 0.13772973 45.01385 88.9242162 195.65945 88.9242162"></polyline>
                </g>
                <path d="M691.762322,491.306927 C686.336581,492.25821 681.155905,492.407767 678.063183,490.613079 C657.389491,469.037596 661.293378,398.54706 661.293378,398.54706 L719.812474,397 L730.86246,441.411171 C733.813044,453.265428 730.948233,465.815984 723.14536,475.21603 C714.416141,483.439231 703.57201,489.23519 691.762322,491.306927" id="Fill-145" fill="#F0AB85"></path>
                <path d="M645.68803,387.009304 C653.353581,378.433278 665.482492,376.720036 671.236582,380.067975 C675.512737,382.556839 690.267444,358.294097 719.51822,360.095701 C739.623048,361.332769 766.474645,392.396934 733.489622,454 C731.307206,447.127397 716.352978,409.229902 706.202035,416.242411 C696.580685,424.58526 685.717871,428.146741 677.054715,429.599806 C665.7633,431.49468 649.826245,425.252884 642.998191,416.092686 C637.241638,408.365917 634.529629,399.664711 645.68803,387.009304" id="Fill-146" fill="#1B2441"></path>
                <path d="M730.966201,423.071885 C727.242991,420.65339 721.554685,422.465389 718.26248,427.120181 C714.965406,431.774972 715.31362,437.510474 719.034395,439.926472 C722.757606,442.347463 728.443477,440.535464 731.740551,435.880673 C735.032756,431.225881 734.686977,425.49038 730.966201,423.071885" id="Fill-147" fill="#F0AB85"></path>
                <path d="M724,353.084254 C724,353.084254 730.649065,340.194836 753.486727,345.122854 C794.611784,356.259979 789.462212,405.311921 785.230092,430.374134 C782.980853,443.688127 786.408969,457.274536 794.786889,467.893826 C815.143484,493.692296 845.478608,543.357787 805.174819,571.735613 C797.541713,577.10784 787.928191,579.456502 778.889311,577.066119 C770.074861,574.732182 764.582477,569.202887 761.171625,563.406084 C756.589295,555.631203 755.750763,546.182563 758.256494,537.519263 C760.167853,530.917486 761.985495,521.859062 759.381113,517.235364 C754.993618,509.440849 729.817932,494.210131 728.180328,470.615526 C726.542725,447.018466 741.586973,437.9355 745.266648,413.04999 C751.74554,369.252473 742.169013,363.73054 742.169013,363.73054 L724,353.084254" id="Fill-148" fill="#1B2441"></path>
                <polyline id="Fill-149" fill="#EE9E35" points="739.467409 371 720 360.432701 724.86439 353 743 363.648302 739.467409 371"></polyline>
                <polygon id="Fill-150" fill="url(#linearGradient-39)" points="655 668 769 668 769 660 655 660"></polygon>
                <path d="M100.017688,667 C91.2995075,616.213161 91.9353872,566.405865 118.256877,541.24876 C157.438357,503.793497 230.370563,509.234856 283.16576,519.838406 C319.66869,527.170283 346,559.002971 346,596.139883 L346,667 L100.017688,667" id="Fill-152" fill="#005C5A"></path>
                <path d="M422.944644,664.484761 C442.05408,658.496711 387.425137,578 387.425137,578 L341,593.18908 L379.06399,641.164824 L351.758123,637.290059 L349.294769,659.025647 C349.294769,659.025647 414.662167,667.080238 422.944644,664.484761" id="Fill-153" fill="#F0AB85"></path>
                <g id="Group-156" transform="translate(112.000000, 498.000000)">
                    <mask id="mask-41" fill="white">
                        <use xlink:href="#path-40"></use>
                    </mask>
                    <g id="Clip-155"></g>
                    <path d="M223.189397,169.926171 L65.4885776,169.926171 L70.7782759,98.7427429 L60.039181,114.770686 L1.77142241,93.4009143 L12.8593966,72.3997143 C34.9272414,30.0262857 67.0069397,1.64628571 117.009698,0.221142857 C119.071034,0.162171429 129.837155,0.132685714 131.974655,0.132685714 C158.418233,0.132685714 179.665474,3.54074286 196.161078,8.0152 C220.494181,14.6126286 241.724224,28.8345714 257.082284,47.8282857 L282.90181,79.6384571 L236.835,110.352743 L222.302457,90.3810857 L223.189397,169.926171" id="Fill-154" fill="url(#linearGradient-42)" mask="url(#mask-41)"></path>
                </g>
                <path d="M101.744169,667 C101.579559,666.838692 101.333873,666.701825 101.203659,666.528297 C89.2166105,650.585717 114.728705,590 114.728705,590 L171.411056,611.001777 L156.478226,636.520171 L273,630.955055 L272.847674,648.711125 C272.847674,648.711125 216.219374,660.682114 167.878083,667 L101.744169,667" id="Fill-157" fill="#F0AB85"></path>
                <path d="M275.114345,480.844694 L277.985338,502.673577 C277.985338,502.673577 279.215763,514 259.133462,514 C250.955039,514 245.684228,512.123331 242.307882,509.89494 C238.423742,507.334505 236.49754,502.631764 237.112752,497.995432 L243.338119,451 L275.114345,480.844694" id="Fill-158" fill="#EC967C"></path>
                <path d="M315.89776,660 L366.099801,660 C369.187731,657.154831 371,653.759776 371,650.102052 C371,640.105909 357.567747,632 340.99878,632 C324.429814,632 311,640.105909 311,650.102052 C311,653.759776 312.80983,657.154831 315.89776,660" id="Fill-159" fill="#F0AB85"></path>
                <polygon id="Fill-160" fill="#005C5A" points="211 668 364 668 364 660 211 660"></polygon>
                <path d="M272.033331,485.447188 C277.527639,487.473931 282.891889,488.679683 286.388713,487.589114 C311.210027,471.100695 318,402.571313 318,402.571313 L297.176108,382 L257.376118,389.08012 L239.0454,429.48508 C234.1523,440.270683 235.20012,452.916379 241.867398,463.547587 C249.680652,473.24017 260.068059,481.033448 272.033331,485.447188" id="Fill-161" fill="#F0AB85"></path>
                <path d="M253.575907,414.919278 C258.114054,408.675593 263.619388,392.289308 270.219882,396.281818 C275.033665,399.193075 292.403645,407.010611 298.347043,409.394787 C312.507835,415.079372 339.975438,419.667926 348.621052,398.097043 C352.942628,387.316528 346.216621,373.824258 340.703905,368.40075 C335.294551,363.080688 327.906526,360.265488 320.329002,359.923132 C302.545568,359.117734 277.039408,362.854092 269.456962,357.883775 C256.701421,349.52438 239.589849,352.112985 235.059085,363.989532 C230.21577,376.678866 229.189518,398.276842 230.555392,412.803568 C231.342923,421.212222 233.629224,429.386892 237.278938,437 L253.575907,414.919278" id="Fill-162" fill="#1B2441"></path>
                <path d="M233.836873,424.223195 C237.687913,421.722583 244.020346,423.178604 247.976552,427.472758 C251.932758,431.766913 252.017891,437.27565 248.164347,439.776262 C244.310802,442.276874 237.978369,440.823316 234.022163,436.526698 C230.065958,432.232544 229.983328,426.723807 233.836873,424.223195" id="Fill-163" fill="#F0AB85"></path>
                <path d="M912,679 L33,679 C33,671.265751 33.8813002,665 55.4056465,665 L889.594354,665 C911.121155,665 912,671.265751 912,679" id="Fill-164" fill="#1B2441"></path>
                <path d="M637,618.998756 C637,623.419841 633.417353,627 628.998756,627 C624.580159,627 621,623.419841 621,618.998756 C621,614.582647 624.580159,611 628.998756,611 C633.417353,611 637,614.582647 637,618.998756" id="Fill-165" fill="#FFFFFE"></path>
                <polyline id="Fill-166" fill="#1B2441" points="272 620 312.742775 459 552 459 509.524901 620 272 620"></polyline>
                <polyline id="Fill-167" fill="#21837F" points="404.437852 665 426 575 397.449011 575 377 665 404.437852 665"></polyline>
                <path d="M246.897959,659 L297.102041,659 C300.190097,656.154831 302,652.757321 302,649.102052 C302,639.105909 288.56964,631 272,631 C255.432799,631 242,639.105909 242,649.102052 C242,652.757321 243.809903,656.154831 246.897959,659" id="Fill-168" fill="#F0AB85"></path>
                <path d="M933.274566,258.421514 C917.6855,248.142456 913.381514,227.172098 923.662985,211.58297 C933.942003,195.996297 954.912279,191.692294 970.498892,201.971352 C986.087959,212.25041 990.391945,233.223222 980.110473,248.809895 C969.831455,264.399023 948.861179,268.700572 933.274566,258.421514 Z M1036.28068,266.654085 C1036.13345,264.637044 1030.72034,259.093861 1023.58957,254.208302 C1025.9624,247.141297 1027.23838,239.860809 1027.45923,232.592589 C1034.91881,231.363225 1042.66059,229.287292 1044.18441,225.869119 C1047.27866,218.932166 1040.74416,199.335948 1038.30753,197.235476 C1036.7469,195.893236 1028.74502,195.819621 1020.06589,197.498035 C1016.95937,191.00277 1012.90812,184.907478 1007.94897,179.43791 C1012.36828,173.281272 1016.3999,166.312419 1015.05521,162.808362 C1012.33638,155.716818 993.861635,146.47818 990.652049,146.718655 C988.642377,146.868338 983.128662,152.242207 978.252938,159.338658 C971.15406,156.690985 963.812255,155.172069 956.455727,154.732835 C955.211644,147.530869 953.162711,140.284735 949.867242,138.814896 C942.93277,135.723081 923.336628,142.2527 921.233712,144.691798 C919.987175,146.14446 919.832585,153.164843 921.167459,161.122586 C914.110296,164.253663 907.485004,168.471782 901.576225,173.745044 C895.92755,169.880275 889.962333,166.734476 886.809185,167.94421 C879.715215,170.66059 870.479067,189.137866 870.714633,192.34501 C870.852047,194.153477 875.207563,198.793653 881.24394,203.2547 C878.294458,210.967061 876.672488,218.981242 876.341224,226.990515 C869.993213,228.259141 864.121241,230.202567 862.815813,233.129976 C859.721556,240.06693 866.253603,259.663148 868.690239,261.763619 C870.032474,262.919369 876.137558,263.132851 883.341949,262.107154 C886.752748,269.451441 891.378183,276.295149 897.134826,282.33155 C893.559622,287.702965 890.799083,293.204433 891.94256,296.190733 C894.661383,303.282277 913.136133,312.520915 916.345718,312.282894 C918.156632,312.147934 922.813967,307.767863 927.284812,301.709378 C934.965243,304.357051 942.908232,305.682115 950.816867,305.785175 C952.083034,312.462023 954.065714,318.817421 957.128071,320.184199 C964.064997,323.278468 983.663593,316.746396 985.761602,314.307297 C987.020407,312.849727 987.162728,305.765545 985.810678,297.758725 C992.556207,294.379813 998.845327,289.967842 1004.42775,284.564527 C1010.35861,288.73357 1016.84894,292.33578 1020.18858,291.057339 C1027.28255,288.338505 1036.52115,269.863683 1036.28068,266.654085 L1036.28068,266.654085 Z" id="Fill-169" fill="#FACB57"></path>
                <path d="M974.473855,188.851612 C953.314687,177.27376 926.378121,183.699332 912.867973,204.185308 C898.636265,225.767251 904.615602,254.900288 926.193422,269.130628 C947.75154,283.343727 976.902037,277.383633 991.136207,255.804153 C1005.36299,234.224673 999.383653,205.089173 977.808296,190.858834 C976.714875,190.139682 975.601753,189.469787 974.473855,188.851612 Z M928.503396,273.017003 C927.32132,272.369274 926.158944,271.669825 925.016271,270.916193 C902.453387,256.035661 896.203158,225.572686 911.082545,203.010529 C925.961932,180.443447 956.442264,174.214902 978.985447,189.073268 C1001.54587,203.9538 1007.7961,234.416775 992.919172,256.981395 C978.793359,278.403253 950.625463,285.121904 928.503396,273.017003 L928.503396,273.017003 Z" id="Fill-170" fill="#FFFFFE"></path>
                <path d="M1017,256.185111 C1016.75465,255.978157 1016.5142,255.771203 1016.27866,255.551931 C1014.51948,260.178823 1012.25488,264.687455 1009.43087,268.989133 C988.492461,300.872308 945.626877,309.704792 913.875774,288.681755 C893.087034,274.914412 882.141846,251.708507 882.936789,228.374487 C882.934336,228.374487 882.931882,228.374487 882.929429,228.372024 C882.632552,228.258692 882.343035,228.133042 882.053519,228 C881.128539,251.75039 892.218485,275.419478 913.380162,289.43073 C945.545911,310.729706 988.965992,301.781426 1010.17919,269.484344 C1012.97621,265.224549 1015.23346,260.762727 1017,256.185111" id="Fill-171" fill="#FFFFFE"></path>
                <path d="M947,162.118637 C961.665037,160.970921 976.792023,164.573753 989.995445,173.461072 C990.254527,173.63323 990.498945,173.822852 990.753139,174 C990.826464,173.685625 990.914454,173.373746 991,173.064361 C990.826464,172.9446 990.662704,172.817353 990.486724,172.697591 C977.17087,163.732926 961.911899,160.077698 947.114876,161.195474 C947.083102,161.504858 947.041551,161.811748 947,162.118637" id="Fill-172" fill="#FFFFFE"></path>
            </g>
            <g id="g490" transform="translate(169.000000, 88.500000) scale(1, -1) translate(-169.000000, -88.500000) translate(0.000000, 35.000000)">
                <g id="g492-Clipped" transform="translate(-0.000000, 0.000000)">
                    <mask id="mask-44" fill="white">
                        <use xlink:href="#path-43"></use>
                    </mask>
                    <g id="path494"></g>
                    <g id="g492" mask="url(#mask-44)" fill="url(#linearGradient-45)" fill-rule="nonzero">
                        <path d="M337.319992,0.122666664 L8.03866647,0.122666664 C8.03866647,0.122666664 -9.81866642,22.7119994 8.03866647,37.9133324 C17.8933329,46.3026655 29.5306659,45.4333322 37.9826657,42.9693323 C43.4906656,41.3626656 48.9826654,45.0786655 50.1919987,50.6879987 C52.1946654,59.9746652 58.3639985,72.1279982 76.0893314,79.3093314 C93.5279977,86.3733312 104.557331,75.5853314 110.938664,64.5013317 C113.038664,60.8546651 118.62933,61.4026651 119.895997,65.414665 C125.423997,82.9133313 144.687996,106.109331 207.982661,106.109331 C288.485326,106.109331 279.541326,63.3133318 272.34666,45.5253322 C271.097327,42.4373323 273.741326,39.235999 276.999993,39.9333323 C289.417326,42.5879989 312.466659,46.0279988 322.802659,37.9133324 C337.319992,26.5173327 337.319992,0.122666664 337.319992,0.122666664" id="path504"></path>
                    </g>
                </g>
            </g>
            <path d="M1019.66599,134.239364 C1030.27399,131.429364 1041.15299,137.751364 1043.96299,148.360364 C1046.77299,158.969364 1040.45099,169.847364 1029.84199,172.657364 C1019.23299,175.467364 1008.35499,169.145364 1005.54499,158.536364 C1002.73499,147.927364 1009.05699,137.049364 1019.66599,134.239364 Z M975.733986,176.176364 C976.676986,176.900364 981.223986,176.698364 986.157986,175.485364 C988.327986,179.290364 991.020986,182.700364 994.119986,185.642364 C991.738986,189.394364 989.618986,193.599364 990.520986,195.606364 C992.350986,199.677364 1003.49899,204.485364 1005.37499,204.238364 C1006.57499,204.080364 1009.73799,200.600364 1012.39999,196.138364 C1016.46399,197.318364 1020.72299,197.929364 1025.06199,197.897364 C1026.02999,202.244364 1027.50799,206.738364 1029.56999,207.521364 C1033.74299,209.106364 1045.02599,204.622364 1046.17699,203.122364 C1046.89799,202.181364 1046.70099,197.660364 1045.49699,192.744364 C1049.43699,190.669364 1052.97799,188.044364 1056.04999,184.991364 C1059.69399,187.265364 1063.67199,189.204364 1065.60699,188.334364 C1069.67799,186.504364 1074.48599,175.356364 1074.23899,173.481364 C1074.09199,172.365364 1071.07299,169.550364 1067.06199,167.020364 C1068.45199,162.700364 1069.19599,158.143364 1069.19699,153.488364 C1073.10299,152.524364 1076.81699,151.142364 1077.52199,149.285364 C1079.10599,145.113364 1074.62299,133.829364 1073.12299,132.679364 C1072.27699,132.030364 1068.53699,132.124364 1064.21899,133.024364 C1061.99199,128.711364 1059.11399,124.864364 1055.73199,121.583364 C1057.65999,118.303364 1059.10799,114.968364 1058.33499,113.249364 C1056.50499,109.177364 1045.35699,104.369364 1043.48199,104.616364 C1042.44999,104.752364 1039.96599,107.345364 1037.59799,110.906364 C1033.04099,109.525364 1028.22999,108.874364 1023.32999,109.035364 C1022.37599,105.366364 1021.04399,102.001364 1019.28599,101.334364 C1015.11299,99.7493642 1003.82999,104.232364 1002.67899,105.733364 C1002.02899,106.580364 1002.12599,110.336364 1003.03199,114.668364 C998.864986,116.998364 995.174986,119.963364 992.032986,123.389364 C988.611986,121.330364 985.047986,119.712364 983.248986,120.520364 C979.177986,122.350364 974.369986,133.499364 974.616986,135.374364 C974.764986,136.495364 977.812986,139.332364 981.853986,141.872364 C980.694986,146.153364 980.167986,150.638364 980.350986,155.199364 C976.201986,156.168364 972.080986,157.603364 971.333986,159.569364 C969.749986,163.742364 974.232986,175.025364 975.733986,176.176364 L975.733986,176.176364 Z" id="Fill-17" fill="#A0D2BB"></path>
            <path d="M1031.85099,180.862364 C1046.71099,176.926364 1055.59799,161.635364 1051.66199,146.775364 C1047.72599,131.915364 1032.43499,123.029364 1017.57499,126.964364 C1002.71599,130.900364 993.828986,146.192364 997.764986,161.051364 C1001.70099,175.910364 1016.99199,184.798364 1031.85099,180.862364 Z M1017.47299,126.576364 C1032.54599,122.584364 1048.05699,131.598364 1052.04999,146.672364 C1056.04299,161.745364 1047.02799,177.257364 1031.95399,181.249364 C1016.88099,185.242364 1001.36899,176.227364 997.376986,161.154364 C993.383986,146.080364 1002.39899,130.569364 1017.47299,126.576364 L1017.47299,126.576364 Z" id="Fill-18" fill="#FFFFFE"></path>
            <path d="M988.012986,172.097364 C988.198986,172.070364 988.384986,172.046364 988.570986,172.027364 C987.239986,169.452364 986.157986,166.701364 985.385986,163.785364 C979.660986,142.174364 992.585986,119.935364 1014.19699,114.211364 C1028.34799,110.463364 1042.76499,114.711364 1052.64199,124.157364 L1052.64599,124.155364 C1052.81099,124.070364 1052.97999,123.991364 1053.15099,123.917364 C1043.14299,114.251364 1028.46599,109.887364 1014.06199,113.702364 C992.169986,119.501364 979.077986,142.029364 984.876986,163.920364 C985.640986,166.808364 986.704986,169.538364 988.012986,172.097364" id="Fill-19" fill="#FFFFFE"></path>
            <path d="M1056.74799,178.038364 C1051.47799,184.935364 1043.97999,190.207364 1034.95999,192.597364 C1034.78299,192.644364 1034.60599,192.679364 1034.42999,192.723364 C1034.53699,192.875364 1034.63599,193.033364 1034.73599,193.191364 C1034.85499,193.161364 1034.97499,193.137364 1035.09499,193.106364 C1044.19499,190.696364 1051.76599,185.389364 1057.09999,178.445364 C1056.97999,178.312364 1056.86299,178.176364 1056.74799,178.038364" id="Fill-20" fill="#FFFFFE"></path>
        </g>
    </g>
</svg>